<svg width="27" height="24" viewBox="0 0 27 24" fill="none" xmlns="http://www.w3.org/2000/svg">
<path d="M4.45801 0.289062C1.87467 0.289062 0.583008 2.8724 0.583008 4.16406V10.6224C0.583008 11.9141 1.87467 14.4974 4.45801 14.4974C5.24592 14.4974 6.16301 14.1357 7.04134 13.5545V22.2474C7.04134 22.9578 7.62259 23.5391 8.33301 23.5391H9.62467C10.3351 23.5391 10.9163 22.9578 10.9163 22.2474V6.7474C10.9163 4.16406 7.04134 0.289062 4.45801 0.289062ZM8.33301 9.62781L5.63342 11.3974C4.97467 11.8236 4.56134 11.9141 4.45801 11.9141C3.55384 11.9141 3.16634 10.7257 3.16634 10.6224V4.20281C3.16634 4.06073 3.55384 2.8724 4.45801 2.8724C5.62051 2.8724 8.33301 5.5849 8.33301 6.7474V9.62781ZM19.3122 15.7891C20.2163 15.7891 21.0818 15.647 21.8955 15.3757V22.2474C21.8955 22.9578 21.3143 23.5391 20.6038 23.5391H18.0205C17.3101 23.5391 16.7288 22.9578 16.7288 22.2474V15.3757C17.5426 15.647 18.408 15.7891 19.3122 15.7891ZM19.3122 0.289062C15.3855 0.289062 12.208 3.46656 12.208 7.39323C12.208 11.3199 15.3855 14.4974 19.3122 14.4974C23.2388 14.4974 26.4163 11.3199 26.4163 7.39323C26.4163 3.46656 23.2388 0.289062 19.3122 0.289062ZM19.3122 11.9141C16.8193 11.9141 14.7913 9.88615 14.7913 7.39323C14.7913 4.90031 16.8193 2.8724 19.3122 2.8724C21.8051 2.8724 23.833 4.90031 23.833 7.39323C23.833 9.88615 21.8051 11.9141 19.3122 11.9141Z" fill="#5A5353"/>
</svg>
