<svg width="25" height="24" viewBox="0 0 25 24" fill="none" xmlns="http://www.w3.org/2000/svg">
	<path
		d="M9.83594 0.288818C9.16716 0.288818 8.625 0.830974 8.625 1.49976V18.4529C8.625 19.1217 9.16716 19.6638 9.83594 19.6638H11.2891C11.9578 19.6638 12.5 19.1217 12.5 18.4529V1.49976C12.5 0.830974 11.9578 0.288818 11.2891 0.288818H9.83594ZM13.6224 2.49802C12.9983 2.70604 12.6545 3.37421 12.8479 4.00294L17.3022 18.4792C17.5021 19.1289 18.1976 19.4869 18.8425 19.2719L20.4193 18.7463C21.0433 18.5383 21.3872 17.8701 21.1937 17.2414L16.7395 2.7651C16.5396 2.11536 15.8441 1.75745 15.1992 1.97243L13.6224 2.49802ZM4.66927 2.87215C4.00049 2.87215 3.45833 3.41431 3.45833 4.08309V18.4529C3.45833 19.1217 4.00049 19.6638 4.66927 19.6638H6.1224C6.79118 19.6638 7.33333 19.1217 7.33333 18.4529V4.08309C7.33333 3.41431 6.79118 2.87215 6.1224 2.87215H4.66927ZM2.08594 20.9555C1.41715 20.9555 0.875 21.4976 0.875 22.1664V22.3279C0.875 22.9967 1.41716 23.5388 2.08594 23.5388H22.9141C23.5828 23.5388 24.125 22.9967 24.125 22.3279V22.1664C24.125 21.4976 23.5828 20.9555 22.9141 20.9555H2.08594Z"
		fill="#5A5353"
	/>
</svg>
